<svg width="100%" height="100%" viewBox="0 0 1440 208" fill="none" xmlns="http://www.w3.org/2000/svg">
<path d="M-173 98V116.819C-173 171.115 -127.919 220.438 -76.326 203.52C-55.7032 196.757 -41.4893 185.868 -46.8908 168.358C-50.2537 157.457 -49.6897 147.846 -46.8286 139.51C-34.3631 103.188 15.8141 114.689 43.838 140.944L62.9469 158.846C95.2959 189.153 143.736 194.546 181.959 172.097L216.007 152.1C256.218 128.484 307.414 135.796 339.406 169.724L345.82 176.526C377.354 209.968 427.623 217.607 467.668 195.042L566.742 139.214C597.036 122.143 634.024 122.035 664.418 138.929L710.832 164.729C735.75 178.579 765.395 181.136 792.317 171.757L898.637 134.714C923.829 125.937 951.483 127.59 975.45 139.304L1067.18 184.136C1099.78 200.073 1138.46 197.093 1168.24 176.349L1213.39 144.9C1242.83 124.393 1281 121.23 1313.42 136.609L1423.7 188.934C1451.64 202.194 1484.15 201.774 1511.75 187.799L1634.38 125.69C1650.59 117.48 1670.3 121.292 1682.28 134.953C1706.5 162.566 1752 145.439 1752 108.713V57.1897C1752 24.5001 1725.5 -2.00003 1692.81 -2.00003H-73C-128.228 -2.00003 -173 42.7716 -173 98Z" fill="#00AEE4"/>
</svg>
